<?xml version="1.0" encoding="utf-8"?>
<!-- Generator: Adobe Illustrator 15.0.0, SVG Export Plug-In . SVG Version: 6.00 Build 0)  -->
<!DOCTYPE svg PUBLIC "-//W3C//DTD SVG 1.1//EN" "http://www.w3.org/Graphics/SVG/1.1/DTD/svg11.dtd">
<svg version="1.1" id="Capa_1" xmlns="http://www.w3.org/2000/svg" xmlns:xlink="http://www.w3.org/1999/xlink" x="0px" y="0px"
	 width="2048px" height="2048px" viewBox="816.5 -365.5 2048 2048" enable-background="new 816.5 -365.5 2048 2048"
	 xml:space="preserve">
<rect x="-2315.5" y="-365.5" fill="#121B2E" width="1024" height="1024"/>
<g>
	<path fill="#0077B6" d="M-1731.112-110.503c-6.965-19.371-22.557-35.149-41.237-43.51c-15.846-7.042-33.957-7.591-50.723-3.827
		c-17.238,3.968-32.374,14.9-43.274,28.609c-5.113,8.313-9.771,17.144-12.61,26.507c-2.996,16.861-1.428,34.821,5.63,50.521
		l0.894,0.235c3.419,10.431,11.042,18.854,19.167,25.942c13.504,11.607,31.229,17.709,48.937,17.897
		c18.351,0.579,36.735-6.322,50.693-18.101c8.61-7.168,15.418-16.328,20.438-26.304
		C-1724.777-70.522-1724.087-91.947-1731.112-110.503z"/>
	<g>
		<path fill="none" stroke="#0077B6" stroke-width="14" stroke-linecap="round" stroke-linejoin="round" stroke-miterlimit="10" d="
			M-1858.081,265.521c-9.866-4.264-20.124-7.637-29.849-12.253c-40.937-18.99-78.141-46.034-108.82-79.161
			c-35.119-39.604-61.17-87.301-75.255-138.339c-7.106-29.063-12.517-58.803-12.125-88.839c-0.11-48.466-0.204-96.949,0.235-145.429
			"/>
		<path fill="none" stroke="#0077B6" stroke-width="14" stroke-linecap="round" stroke-linejoin="round" stroke-miterlimit="10" d="
			M-1577.562-198.511c0.064,44.827,0.016,89.654-0.11,134.467c0.19,22.742-2.775,45.438-8.15,67.507
			c-9.646,43.32-28.688,84.664-56.233,119.533c-26.603,33.44-62.578,58.803-101.917,75.081"/>
		<path fill="none" stroke="#0077B6" stroke-width="14" stroke-linecap="round" stroke-linejoin="round" stroke-miterlimit="10" d="
			M-1577.562-198.511c0.064,44.827,0.016,89.654-0.11,134.467c0.19,22.742-2.775,45.438-8.15,67.507
			c-9.646,43.32-28.688,84.664-56.233,119.533c-26.603,33.44-62.578,58.803-101.917,75.081"/>
		<path fill="none" stroke="#0077B6" stroke-width="14" stroke-linecap="round" stroke-linejoin="round" stroke-miterlimit="10" d="
			M-1743.897,265.521c9.865-4.264,20.123-7.637,29.848-12.253c40.937-18.99,78.138-46.034,108.821-79.161
			c35.117-39.604,61.17-87.301,75.253-138.339c7.107-29.063,12.517-58.803,12.125-88.839c0.11-48.466,0.203-96.949-0.236-145.429"/>
		<path fill="none" stroke="#0077B6" stroke-width="14" stroke-linecap="round" stroke-linejoin="round" stroke-miterlimit="10" d="
			M-2058.375,533.419c35.008-1.757,70.063-0.492,105.103-0.895c18.822,0.063,37.66-0.11,56.481,0.205
			c4.157-0.315,8.941,0.328,12.517-2.182c2.07-5.537,1.522-11.607,1.663-17.394c-0.423-46.209,0.862-92.447-0.235-138.654
			c0.298-19.088,0.329-38.176,0.407-57.265c-16.61-7.621-33.173-15.323-49.375-23.793c-5.113-3.076-10.054-6.415-15.214-9.411
			c-28.876-17.128-54.269-39.433-77.875-63.146c-12.312-12.658-23.448-26.382-34.521-40.122
			c-27.888-36.748-49.533-78.255-63.366-122.294c-4.282-12.673-7.074-25.785-11.011-38.553c-4.157-27.81-9.364-55.697-8.784-83.945
			c-0.141-36.295,0.439-72.604-0.314-108.899c0.941-17.269-0.329-50.27,0.597-67.538l677.973-0.313
			c0.518,50.552-0.034,116.788,0.156,167.341c0.361,16.296-0.596,32.577-2.338,48.779c-2.18,26.382-7.617,52.402-15.182,77.749
			c-6.023,20.265-14.775,39.558-22.838,59.084c-9.019,14.995-16.595,30.867-26.494,45.36c-11.389,16.187-22.964,32.264-35.825,47.32
			c-36.357,42.021-81.719,75.853-131.423,100.462c-8.627,4.124-17.66,7.345-26.146,11.764l0.613,216.701
			c61.251-1.078,122.543,0.286,183.809-0.975"/>
		<path fill="none" stroke="#0077B6" stroke-width="14" stroke-linecap="round" stroke-linejoin="round" stroke-miterlimit="10" d="
			M-1635.688-198.48c-1.146,41.157-0.224,82.312-0.658,123.471c0.344,25.473-0.11,51.242-6.776,76.008
			c-0.391,1.059-0.742,2.133-1.104,3.201h-0.013c-0.087,0.258-0.168,0.517-0.256,0.775c-0.787,2.349-1.545,4.704-2.285,7.067h0.013
			c-2.265,7.235-4.519,14.473-8.037,21.237c-22.1,49.375-67.037,89.011-120.396,100.54c-1.756,0.426-3.515,0.846-5.267,1.302
			l0.141,398.124"/>
		<path fill="none" stroke="#0077B6" stroke-width="14" stroke-linecap="round" stroke-linejoin="round" stroke-miterlimit="10" d="
			M-1856.723,198.077c-39.337-16.278-75.315-41.641-101.918-75.081c-27.545-34.869-46.585-76.213-56.233-119.533
			c-5.376-22.069-8.341-44.765-8.151-67.507c-0.125-44.813-0.174-89.64-0.11-134.467"/>
		<path fill="none" stroke="#0077B6" stroke-width="14" stroke-linecap="round" stroke-linejoin="round" stroke-miterlimit="10" d="
			M-1965.548-198.48c1.145,41.157,0.223,82.312,0.659,123.471c-0.346,25.473,0.109,51.242,6.775,76.008
			c0.391,1.059,0.742,2.133,1.104,3.201h0.012c0.088,0.258,0.168,0.517,0.256,0.775c0.787,2.349,1.545,4.704,2.285,7.067h-0.012
			c2.265,7.235,4.519,14.473,8.037,21.237c22.1,49.375,67.036,89.011,120.396,100.54c1.755,0.426,3.514,0.846,5.265,1.302
			l-0.141,398.124"/>
	</g>
</g>
<rect x="-227.5" y="-365.5" fill="#121B2E" width="1024" height="1024"/>
<text transform="matrix(1 0 0 1 -2317.5913 787.165)"><tspan x="0" y="0" font-family="'MyriadPro-Regular'" font-size="53.9602">CONO PRINCIPAL (Legacy/iOS)</tspan><tspan x="0" y="129.505" font-family="'MyriadPro-Regular'" font-size="53.9602">Nombre: icon</tspan><tspan x="0" y="194.257" font-family="'MyriadPro-Regular'" font-size="53.9602">Extensión: .png</tspan><tspan x="0" y="259.009" font-family="'MyriadPro-Regular'" font-size="53.9602">Medida Real: 1024 x 1024 px</tspan><tspan x="0" y="323.761" font-family="'MyriadPro-Regular'" font-size="53.9602">Medida Segura: 820 x 820 px (Logo centrado)</tspan><tspan x="0" y="388.513" font-family="'MyriadPro-Regular'" font-size="53.9602">Color-Fondo: #121B2E (Azul Cronos Oscuro)</tspan><tspan x="0" y="453.266" font-family="'MyriadPro-Regular'" font-size="53.9602">Color-Logo: Blanco o #0077B6</tspan><tspan x="0" y="518.018" font-family="'MyriadPro-Regular'" font-size="53.9602">Lleva-Degrado: No (Flat)</tspan></text>
<text transform="matrix(1 0 0 1 -1266.3193 722.8164)"><tspan x="0" y="0" font-family="'MyriadPro-Regular'" font-size="39.9653">ICONO FRONTAL ADAPTATIVO (Android Foreground)</tspan><tspan x="0" y="95.917" font-family="'MyriadPro-Regular'" font-size="39.9653">Nombre: adaptive-foreground</tspan><tspan x="0" y="143.875" font-family="'MyriadPro-Regular'" font-size="39.9653">Extensión: .png</tspan><tspan x="0" y="191.833" font-family="'MyriadPro-Regular'" font-size="39.9653">Medida Real: 1024 x 1024 px</tspan><tspan x="0" y="239.792" font-family="'MyriadPro-Regular'" font-size="39.9653">Medida Segura: 675 x 675 px (Importante: dejar mucho &quot;aire&quot; </tspan><tspan x="0" y="287.75" font-family="'MyriadPro-Regular'" font-size="39.9653">para que Android no corte el logo al hacerlo circular)</tspan><tspan x="0" y="335.708" font-family="'MyriadPro-Regular'" font-size="39.9653">Color-Fondo: Transparente</tspan><tspan x="0" y="383.666" font-family="'MyriadPro-Regular'" font-size="39.9653">Color-Logo: Originales (Cáliz con sus tonos azules)</tspan><tspan x="0" y="431.625" font-family="'MyriadPro-Regular'" font-size="39.9653">Lleva-Degrado: Sí (Versión </tspan><tspan x="0" y="479.583" font-family="'MyriadPro-Regular'" font-size="39.9653">CalixAuth.svg</tspan><tspan x="0" y="527.541" font-family="'MyriadPro-Regular'" font-size="39.9653">)</tspan></text>
<g>
	<g>
		<path fill="#FFFFFF" d="M-962.125-130.528c7.369-0.103,14.749-0.141,22.131-0.051c-0.051,36.56-0.013,73.122,0.089,109.669
			c-0.155,18.547,2.263,37.057,6.65,55.056c7.867,35.333,23.398,69.051,45.862,97.489c21.694,27.275,51.04,47.959,83.124,61.235
			c0.102,7.176,0.102,14.354-0.181,21.53c-16.553-5.485-31.979-13.891-46.753-23.038c-36.228-22.557-64.909-56.365-82.843-94.956
			c-18.702-40.566-29.001-85.338-27.939-130.085C-962.113-65.967-961.895-98.242-962.125-130.528z"/>
	</g>
	<path fill="#FFFFFF" d="M-700.779-58.803c-5.68-15.798-18.396-28.666-33.633-35.485c-12.921-5.743-27.693-6.192-41.369-3.122
		c-14.059,3.235-26.403,12.153-35.293,23.333c-4.17,6.779-7.968,13.981-10.286,21.621c-2.444,13.75-1.166,28.396,4.593,41.2
		l0.728,0.193c2.79,8.506,9.006,15.376,15.633,21.161c11.013,9.464,25.47,14.44,39.913,14.594
		c14.967,0.473,29.961-5.156,41.344-14.763c7.023-5.845,12.575-13.314,16.668-21.451C-695.614-26.195-695.05-43.669-700.779-58.803z
		"/>
	<path fill="#FFFFFF" d="M-804.332,247.876c-8.047-3.477-16.414-6.228-24.345-9.992c-33.388-15.488-63.731-37.545-88.752-64.561
		c-28.643-32.302-49.891-71.202-61.375-112.828c-5.797-23.706-10.21-47.956-9.89-72.455c-0.089-39.527-0.168-79.07,0.193-118.609
		c-7.125-0.076-14.252-0.024-21.391,0.013c-0.471,39.949-0.139,79.924-0.191,119.875c0.052,37.98,8.109,75.731,22.462,110.833
		c10.798,25.737,24.306,50.631,42.101,72.239c2.584,4.694,6.639,8.352,10.017,12.446c17.756,20.427,38.861,37.684,61.581,52.293
		c21.645,13.369,44.57,25.024,69.053,32.221C-804.067,262.218-804.155,255.041-804.332,247.876z"/>
	<g>
		<path fill="#FFFFFF" d="M-553.415-130.528c-7.366-0.103-14.746-0.141-22.132-0.051c0.052,36.56,0.013,73.122-0.089,109.669
			c0.154,18.547-2.263,37.057-6.647,55.056c-7.868,35.333-23.397,69.051-45.863,97.489c-21.696,27.275-51.038,47.959-83.123,61.235
			c-0.102,7.176-0.102,14.354,0.18,21.53c16.554-5.485,31.98-13.891,46.753-23.038c36.228-22.557,64.909-56.365,82.846-94.956
			c18.703-40.566,29-85.338,27.94-130.085C-553.427-65.967-553.646-98.242-553.415-130.528z"/>
	</g>
	<path fill="#FFFFFF" d="M-711.208,247.876c8.047-3.477,16.414-6.228,24.344-9.992c33.388-15.488,63.729-37.545,88.753-64.561
		c28.643-32.302,49.89-71.202,61.374-112.828c5.798-23.706,10.21-47.956,9.891-72.455c0.088-39.527,0.167-79.07-0.191-118.609
		c7.124-0.076,14.252-0.024,21.391,0.013c0.468,39.949,0.135,79.924,0.188,119.875c-0.052,37.98-8.109,75.731-22.461,110.833
		c-10.798,25.737-24.306,50.631-42.101,72.239c-2.584,4.694-6.637,8.352-10.016,12.446c-17.757,20.427-38.862,37.684-61.582,52.293
		c-21.647,13.369-44.573,25.024-69.052,32.221C-711.474,262.218-711.386,255.041-711.208,247.876z"/>
	<g>
		
			<linearGradient id="SVGID_1_" gradientUnits="userSpaceOnUse" x1="-507.499" y1="79.3857" x2="-507.4991" y2="697.688" gradientTransform="matrix(1 0 0 1 -252 -241)">
			<stop  offset="0" style="stop-color:#516F82"/>
			<stop  offset="1" style="stop-color:#284664"/>
		</linearGradient>
		<path fill="url(#SVGID_1_)" d="M-665.909,444.586c-3.007-0.31-8.224,0.394-8.301-3.944c-1.141-9.77,0.42-19.622,0-29.423
			c-0.807-24.861,0.817-49.745-0.371-74.589c1.038-10.258-1.012-20.621,0.422-30.802c4.657-5.21,11.934-6.818,17.87-10.187
			c21.467-11.573,42.05-24.814,61.3-39.793c27.619-22.069,51.095-48.932,71.316-77.84c31.062-45.937,52.208-99.026,58.741-154.223
			c4.262-24.868,3.56-50.247,3.788-75.387c-0.201-40.334,0.488-80.667-0.447-120.99l-1.063-0.24
			c-2.864-0.602-5.793-0.781-8.696-0.833c-41.359,0.193-82.729,0.012-124.084,0.076c-13.101,0.193-26.201-0.434-39.274,0.462
			c-4.822-0.105-9.633-0.45-14.454-0.462c-127.489,0.038-254.99,0-382.487,0c-8.548-0.038-17.091-0.101-25.636,0.282
			c-0.908,10.273-0.206,20.596-0.373,30.881c-0.165,34.23,0.32,68.463-0.254,102.695c0.371,8.571,0.348,17.153,0.667,25.74
			c0.203,22.194,3.453,44.258,7.724,65.995c3.02,13.966,7.357,27.592,11.486,41.267c6.525,18.831,14.636,37.108,24.345,54.532
			c9.39,18.565,21.542,35.514,34.297,51.874c16.259,20.979,35.025,40.102,56.08,56.273c10.681,9.633,22.745,17.461,34.949,24.997
			c14.046,9.516,29.666,16.282,44.453,24.496c-0.038,35.778-0.075,71.55,0.05,107.315c0.09,10.207-0.344,20.438,0.257,30.649
			c-3.876,0.354-7.753,0.59-11.627,0.741c-17.424,0.754-34.874,0.411-52.294,1.127c-20.074,0.894-40.17,0.139-60.24,1.064
			c-0.552,6.66-0.526,13.365,0.076,20.03c28.55-1.436,57.143-0.399,85.72-0.731c15.351,0.05,30.716-0.09,46.067,0.17
			c3.389-0.26,7.291,0.266,10.207-1.779c1.69-4.515,1.241-9.464,1.358-14.188c-0.346-37.687,0.702-75.399-0.193-113.084
			c0.244-15.568,0.269-31.137,0.332-46.701c-13.545-6.218-27.054-12.5-40.27-19.408c-4.169-2.509-8.2-5.233-12.407-7.677
			c-23.551-13.967-44.261-32.158-63.516-51.5c-10.041-10.324-19.123-21.518-28.155-32.723
			c-22.743-29.973-40.397-63.823-51.68-99.743c-3.491-10.336-5.768-21.028-8.98-31.441c-3.389-22.682-7.636-45.427-7.165-68.464
			c-0.115-29.602,0.36-59.216-0.254-88.817c0.766-14.084-0.269-28.208,0.484-42.292c15.428-0.433,30.856,0.118,46.282-0.307
			c63.247,0.373,126.491,0.051,189.748,0.118c36.983-0.066,73.967,0.165,110.961-0.08c68.641,0.143,137.298,0.167,205.955,0.013
			c0.421,41.229-0.027,82.459,0.126,123.689c0.295,13.292-0.485,26.568-1.906,39.782c-1.778,21.518-6.214,42.74-12.384,63.412
			c-4.91,16.528-12.048,32.262-18.625,48.188c-7.357,12.23-13.533,25.176-21.605,36.995c-9.29,13.204-18.729,26.316-29.22,38.595
			c-29.65,34.273-66.648,61.864-107.184,81.936c-7.037,3.36-14.407,5.989-21.327,9.591l0.5,176.74
			c49.955-0.878,99.943,0.229,149.91-0.793c0.167-6.051,1.868-12.677-0.867-18.349c-4.361-1.815-9.241-1.267-13.844-1.414
			L-665.909,444.586z"/>
		
			<linearGradient id="SVGID_2_" gradientUnits="userSpaceOnUse" x1="-588.8384" y1="79.3872" x2="-588.8384" y2="697.69" gradientTransform="matrix(1 0 0 1 -252 -241)">
			<stop  offset="0" style="stop-color:#516F82"/>
			<stop  offset="1" style="stop-color:#284664"/>
		</linearGradient>
		<path fill="url(#SVGID_2_)" d="M-794.917,466.265c6.765,0.197,13.533,0.185,20.301-0.038l0.115-324.703
			c-1.435-0.372-2.866-0.715-4.299-1.061c-43.518-9.402-80.167-41.731-98.193-82c-3.908-7.516-5.902-15.748-8.613-23.714h-21.567
			c0.894,4.491,1.989,8.95,3.483,13.276c5.936,17.795,14.009,35.113,25.726,49.879c11.345,14.914,24.343,28.858,40.026,39.282
			c1.753,1.064,3.659,1.856,5.603,2.52c1.881,1.818,3.787,3.673,6.117,4.951c9.886,5.374,20.44,9.34,30.764,13.79L-794.917,466.265z
			"/>
		
			<linearGradient id="SVGID_3_" gradientUnits="userSpaceOnUse" x1="-422.6997" y1="79.3867" x2="-422.6997" y2="697.6905" gradientTransform="matrix(1 0 0 1 -252 -241)">
			<stop  offset="0" style="stop-color:#516F82"/>
			<stop  offset="1" style="stop-color:#284664"/>
		</linearGradient>
		<path fill="url(#SVGID_3_)" d="M-720.085,158.447c10.324-4.45,20.877-8.417,30.768-13.79c2.327-1.278,4.235-3.133,6.112-4.951
			c1.946-0.664,3.853-1.456,5.604-2.52c15.685-10.424,28.683-24.368,40.026-39.282c11.716-14.766,19.792-32.084,25.726-49.879
			c1.495-4.326,2.59-8.787,3.484-13.276h-21.563c-2.712,7.966-4.707,16.198-8.615,23.714c-18.025,40.269-54.675,72.598-98.192,82
			c-1.433,0.348-2.866,0.689-4.296,1.061l0.114,324.703c6.767,0.223,13.536,0.238,20.3,0.038L-720.085,158.447z"/>
	</g>
	<path fill="#FFFFFF" d="M-892.05-29.855c-0.358-33.566,0.395-67.135-0.539-100.7c-6.996-0.038-14.005-0.038-21.003,0.013
		c0.244,28.449,0,56.9,0,85.337c0.05,14.479-0.396,28.974,0.576,43.43c0.753,11.779,3.21,23.343,5.514,34.894
		c0.504,2.691,1.087,5.371,1.766,8.023h22.195c-0.944-3.021-1.893-6.041-2.982-9.008C-891.961,11.938-892.331-9.082-892.05-29.855z"
		/>
	<path fill="#FFFFFF" d="M-602.524-1.775c0.972-14.456,0.525-28.951,0.576-43.43c0-28.438-0.244-56.889,0-85.337
		c-6.997-0.05-14.008-0.05-21.004-0.013c-0.935,33.565-0.183,67.133-0.539,100.7c0.281,20.773-0.089,41.793-5.527,61.99
		c-1.092,2.967-2.038,5.987-2.981,9.008h22.193c0.68-2.652,1.265-5.333,1.768-8.023C-605.734,21.568-603.278,10.004-602.524-1.775z"
		/>
</g>
<text transform="matrix(1 0 0 1 -223.5796 729.3164)"><tspan x="0" y="0" font-family="'MyriadPro-Regular'" font-size="55.9668">FONDO ADAPTATIVO (Android Background)</tspan><tspan x="0" y="134.32" font-family="'MyriadPro-Regular'" font-size="55.9668">Nombre: adaptive-background</tspan><tspan x="0" y="201.48" font-family="'MyriadPro-Regular'" font-size="55.9668">Extensión: .png</tspan><tspan x="0" y="268.641" font-family="'MyriadPro-Regular'" font-size="55.9668">Medida Real: 1024 x 1024 px</tspan><tspan x="0" y="335.801" font-family="'MyriadPro-Regular'" font-size="55.9668">Medida Segura: No aplica</tspan><tspan x="0" y="402.961" font-family="'MyriadPro-Regular'" font-size="55.9668">Color-Fondo: #121B2E (Azul Cronos Oscuro)</tspan><tspan x="0" y="470.121" font-family="'MyriadPro-Regular'" font-size="55.9668">Color-Logo: N/A (Solo fondo sólido)</tspan><tspan x="0" y="537.281" font-family="'MyriadPro-Regular'" font-size="55.9668">Lleva-Degrado: No</tspan></text>
<text transform="matrix(1 0 0 1 841.8662 1833.4551)"><tspan x="0" y="0" font-family="'MyriadPro-Regular'" font-size="75.4193">PANTALLA DE CARGA (Splash Icon)</tspan><tspan x="0" y="181.006" font-family="'MyriadPro-Regular'" font-size="75.4193">Nombre: splash-icon</tspan><tspan x="0" y="271.51" font-family="'MyriadPro-Regular'" font-size="75.4193">Extensión: .png</tspan><tspan x="0" y="362.013" font-family="'MyriadPro-Regular'" font-size="75.4193">Medida Real: 2048 x 2048 px</tspan><tspan x="0" y="452.516" font-family="'MyriadPro-Regular'" font-size="75.4193">Medida Segura: Logo y texto centrados geométricamente</tspan><tspan x="0" y="543.019" font-family="'MyriadPro-Regular'" font-size="75.4193">Color-Fondo: Transparente</tspan><tspan x="0" y="633.521" font-family="'MyriadPro-Regular'" font-size="75.4193">Color-Logo: Logo (Degradado) + Texto &quot;CalixAuth&quot; (Blanco puro)</tspan><tspan x="0" y="724.025" font-family="'MyriadPro-Regular'" font-size="75.4193">Lleva-Degrado: Sí</tspan></text>
<g>
	<g>
		
			<image overflow="visible" opacity="0.75" width="1372" height="1469" xlink:href="8EC16A7F.png"  transform="matrix(1 0 0 1 1154.5 -224.5)">
		</image>
		<g>
			<g>
				<g>
					<path fill="#FFFFFF" d="M1385.334-112.337c16.551-0.23,33.129-0.316,49.713-0.116c-0.117,82.127-0.031,164.257,0.199,246.355
						c-0.348,41.663,5.084,83.242,14.939,123.676c17.672,79.368,52.559,155.112,103.021,218.992
						c48.732,61.27,114.652,107.732,186.723,137.554c0.229,16.119,0.229,32.245-0.404,48.364
						c-37.184-12.322-71.838-31.203-105.023-51.752c-81.383-50.67-145.809-126.615-186.096-213.304
						c-42.01-91.126-65.145-191.697-62.762-292.215C1385.359,32.69,1385.852-39.812,1385.334-112.337z"/>
				</g>
				<path fill="#FFFFFF" d="M1972.404,48.783c-12.758-35.489-41.324-64.394-75.551-79.712c-29.025-12.901-62.209-13.91-92.928-7.014
					c-31.582,7.268-59.309,27.301-79.281,52.416c-9.367,15.229-17.9,31.405-23.105,48.566c-5.49,30.89-2.619,63.788,10.316,92.55
					l1.637,0.434c6.266,19.107,20.23,34.538,35.117,47.533c24.736,21.262,57.213,32.438,89.656,32.782
					c33.623,1.064,67.303-11.582,92.871-33.162c15.777-13.129,28.248-29.908,37.443-48.184
					C1984.008,122.03,1985.275,82.778,1972.404,48.783z"/>
				<path fill="#FFFFFF" d="M1739.791,737.688c-18.076-7.812-36.873-13.988-54.688-22.445
					c-75-34.792-143.162-84.339-199.369-145.025c-64.342-72.561-112.072-159.944-137.869-253.45
					c-13.021-53.252-22.938-107.726-22.219-162.759c-0.197-88.792-0.377-177.619,0.436-266.437
					c-16.006-0.172-32.016-0.056-48.051,0.028c-1.057,89.739-0.313,179.538-0.43,269.279
					c0.117,85.317,18.217,170.117,50.457,248.972c24.256,57.813,54.598,113.733,94.572,162.271
					c5.805,10.545,14.912,18.761,22.5,27.959c39.887,45.885,87.293,84.649,138.332,117.47
					c48.621,30.029,100.121,56.211,155.117,72.379C1740.387,769.904,1740.189,753.783,1739.791,737.688z"/>
				<g>
					<path fill="#FFFFFF" d="M2303.436-112.337c-16.547-0.23-33.125-0.316-49.717-0.116c0.117,82.127,0.031,164.257-0.199,246.355
						c0.348,41.663-5.082,83.242-14.932,123.676c-17.676,79.368-52.559,155.112-103.025,218.992
						c-48.734,61.27-114.646,107.732-186.721,137.554c-0.23,16.119-0.23,32.245,0.406,48.364
						c37.184-12.322,71.838-31.203,105.023-51.752c81.379-50.67,145.809-126.615,186.1-213.304
						c42.012-91.126,65.145-191.697,62.764-292.215C2303.406,32.69,2302.918-39.812,2303.436-112.337z"/>
				</g>
				<path fill="#FFFFFF" d="M1948.979,737.688c18.076-7.812,36.869-13.988,54.684-22.445c75-34.792,143.158-84.339,199.369-145.025
					c64.342-72.561,112.072-159.944,137.867-253.45c13.025-53.252,22.936-107.726,22.219-162.759
					c0.199-88.792,0.375-177.619-0.428-266.437c16-0.172,32.014-0.056,48.051,0.028c1.053,89.739,0.303,179.538,0.42,269.279
					c-0.117,85.317-18.215,170.117-50.455,248.972c-24.254,57.813-54.6,113.733-94.572,162.271
					c-5.807,10.545-14.908,18.761-22.498,27.959c-39.887,45.885-87.297,84.649-138.334,117.47
					c-48.627,30.029-100.127,56.211-155.113,72.379C1948.379,769.904,1948.58,753.783,1948.979,737.688z"/>
				<g>
					
						<linearGradient id="SVGID_4_" gradientUnits="userSpaceOnUse" x1="2092.5" y1="58.834" x2="2092.4998" y2="1447.7499" gradientTransform="matrix(1 0 0 1 -252 -241)">
						<stop  offset="0" style="stop-color:#516F82"/>
						<stop  offset="1" style="stop-color:#284664"/>
					</linearGradient>
					<path fill="url(#SVGID_4_)" d="M2050.734,1179.565c-6.754-0.695-18.473,0.884-18.646-8.86c-2.564-21.945,0.947-44.078,0-66.094
						c-1.813-55.847,1.838-111.744-0.832-167.552c2.332-23.043-2.275-46.322,0.947-69.191
						c10.461-11.703,26.809-15.316,40.143-22.883c48.221-25.997,94.457-55.739,137.699-89.391
						c62.043-49.573,114.777-109.917,160.201-174.854c69.775-103.189,117.277-222.447,131.953-346.437
						c9.574-55.865,7.996-112.874,8.51-169.345c-0.449-90.604,1.096-181.207-1.006-271.785l-2.389-0.539
						c-6.432-1.352-13.012-1.755-19.535-1.869c-92.906,0.435-185.836,0.026-278.736,0.171c-29.426,0.435-58.855-0.977-88.221,1.037
						c-10.834-0.234-21.639-1.011-32.469-1.037c-286.385,0.083-572.793,0-859.197,0c-19.201-0.086-38.391-0.229-57.588,0.632
						c-2.039,23.077-0.463,46.265-0.838,69.369c-0.371,76.893,0.719,153.793-0.57,230.688c0.832,19.256,0.781,38.534,1.498,57.821
						c0.457,49.858,7.758,99.418,17.35,148.247c6.783,31.372,16.525,61.98,25.803,92.699
						c14.656,42.299,32.877,83.355,54.688,122.496c21.094,41.704,48.393,79.777,77.043,116.526
						c36.521,47.127,78.678,90.084,125.975,126.407c23.994,21.639,51.09,39.224,78.508,56.152
						c31.551,21.375,66.639,36.575,99.854,55.026c-0.084,80.37-0.168,160.725,0.113,241.066c0.203,22.929-0.773,45.91,0.578,68.85
						c-8.707,0.796-17.416,1.325-26.117,1.665c-39.143,1.693-78.342,0.924-117.473,2.531c-45.094,2.007-90.236,0.312-135.318,2.392
						c-1.238,14.961-1.182,30.022,0.17,44.994c64.135-3.225,128.363-0.896,192.557-1.643c34.48,0.111,68.998-0.202,103.48,0.382
						c7.613-0.584,16.379,0.597,22.93-3.997c3.795-10.142,2.785-21.259,3.049-31.87c-0.777-84.657,1.58-169.373-0.432-254.025
						c0.545-34.972,0.604-69.943,0.744-104.906c-30.428-13.968-60.773-28.08-90.461-43.598
						c-9.363-5.636-18.418-11.756-27.869-17.245c-52.906-31.374-99.426-72.235-142.678-115.684
						c-22.557-23.192-42.957-48.336-63.248-73.507c-51.086-67.329-90.744-143.371-116.09-224.057
						c-7.842-23.219-12.955-47.237-20.172-70.629c-7.613-50.952-17.152-102.044-16.094-153.793
						c-0.26-66.495,0.807-133.021-0.57-199.514c1.721-31.64-0.604-63.365,1.088-95.002c34.656-0.975,69.313,0.263,103.965-0.689
						c142.076,0.836,284.143,0.114,426.238,0.264c83.076-0.149,166.156,0.368,249.258-0.18
						c154.191,0.322,308.418,0.377,462.645,0.03c0.945,92.613-0.061,185.231,0.283,277.849c0.662,29.856-1.088,59.682-4.281,89.362
						c-3.992,48.336-13.959,96.009-27.816,142.445c-11.029,37.13-27.066,72.473-41.838,108.245
						c-16.527,27.474-30.4,56.556-48.533,83.106c-20.869,29.658-42.072,59.113-65.641,86.694
						c-66.604,76.99-149.713,138.969-240.77,184.058c-15.809,7.549-32.363,13.454-47.908,21.544l1.125,397.019
						c112.217-1.972,224.504,0.516,336.75-1.781c0.375-13.592,4.193-28.476-1.949-41.217c-9.797-4.078-20.758-2.846-31.098-3.177
						L2050.734,1179.565z"/>
					
						<linearGradient id="SVGID_5_" gradientUnits="userSpaceOnUse" x1="1909.7852" y1="58.835" x2="1909.7852" y2="1447.7561" gradientTransform="matrix(1 0 0 1 -252 -241)">
						<stop  offset="0" style="stop-color:#516F82"/>
						<stop  offset="1" style="stop-color:#284664"/>
					</linearGradient>
					<path fill="url(#SVGID_5_)" d="M1760.938,1228.264c15.197,0.443,30.4,0.414,45.602-0.086l0.26-729.394
						c-3.223-0.834-6.439-1.606-9.656-2.383c-97.758-21.121-180.086-93.743-220.576-184.2c-8.779-16.885-13.26-35.375-19.348-53.271
						h-48.447c2.008,10.087,4.467,20.105,7.824,29.823c13.332,39.974,31.469,78.877,57.789,112.045
						c25.482,33.502,54.684,64.826,89.912,88.241c3.939,2.392,8.219,4.168,12.588,5.66c4.225,4.085,8.506,8.253,13.738,11.122
						c22.207,12.072,45.916,20.982,69.107,30.979L1760.938,1228.264z"/>
					
						<linearGradient id="SVGID_6_" gradientUnits="userSpaceOnUse" x1="2282.9893" y1="58.8354" x2="2282.9893" y2="1447.7554" gradientTransform="matrix(1 0 0 1 -252 -241)">
						<stop  offset="0" style="stop-color:#516F82"/>
						<stop  offset="1" style="stop-color:#284664"/>
					</linearGradient>
					<path fill="url(#SVGID_6_)" d="M1929.037,536.801c23.189-9.997,46.9-18.907,69.115-30.979
						c5.227-2.869,9.514-7.037,13.73-11.122c4.369-1.492,8.654-3.269,12.588-5.66c35.234-23.415,64.432-54.739,89.912-88.241
						c26.318-33.168,44.459-72.071,57.789-112.045c3.355-9.718,5.816-19.736,7.826-29.823h-48.441
						c-6.092,17.896-10.572,36.387-19.352,53.271c-40.492,90.457-122.816,163.079-220.572,184.2
						c-3.221,0.781-6.438,1.549-9.652,2.383l0.258,729.394c15.199,0.5,30.406,0.535,45.6,0.086L1929.037,536.801z"/>
				</g>
				<path fill="#FFFFFF" d="M1542.746,113.809c-0.805-75.399,0.889-150.808-1.211-226.205c-15.713-0.085-31.459-0.085-47.18,0.026
					c0.547,63.907,0,127.818,0,191.698c0.111,32.525-0.891,65.087,1.295,97.558c1.691,26.46,7.207,52.438,12.385,78.385
					c1.133,6.046,2.441,12.065,3.967,18.023h49.857c-2.121-6.787-4.252-13.57-6.699-20.234
					C1542.945,207.689,1542.115,160.473,1542.746,113.809z"/>
				<path fill="#FFFFFF" d="M2193.119,176.886c2.182-32.471,1.18-65.032,1.295-97.558c0-63.88-0.549-127.791,0-191.698
					c-15.719-0.111-31.467-0.111-47.184-0.026c-2.098,75.397-0.41,150.804-1.207,226.205c0.631,46.664-0.203,93.881-12.418,139.251
					c-2.451,6.664-4.578,13.447-6.697,20.234h49.855c1.527-5.958,2.84-11.978,3.969-18.023
					C2185.908,229.324,2191.428,203.346,2193.119,176.886z"/>
			</g>
		</g>
	</g>
	<g>
		<path fill="#FFFFFF" d="M1246.768,1526.234c-19.258,0-36.355-4.459-51.297-13.377c-14.941-8.916-26.658-21.558-35.146-37.922
			c-8.492-16.363-12.736-35.644-12.736-57.843c0-22.388,4.244-41.765,12.736-58.128c8.488-16.364,20.229-29.004,35.217-37.922
			c14.988-8.915,32.064-13.377,51.227-13.377c11.955,0,23.053,1.758,33.299,5.266c10.244,3.512,19.373,8.562,27.391,15.155
			c8.016,6.594,14.607,14.514,19.779,23.763c5.17,9.25,8.656,19.708,10.459,31.377h-38.277c-1.33-6.641-3.535-12.544-6.617-17.716
			c-3.084-5.17-6.9-9.557-11.455-13.162c-4.553-3.604-9.701-6.309-15.438-8.111c-5.742-1.802-11.979-2.704-18.713-2.704
			c-12.617,0-23.551,3.085-32.799,9.25c-9.25,6.168-16.365,14.894-21.344,26.182c-4.98,11.291-7.473,24.667-7.473,40.128
			c0,15.366,2.492,28.696,7.473,39.985c4.979,11.29,12.094,19.992,21.344,26.11c9.248,6.119,20.182,9.178,32.799,9.178
			c6.639,0,12.83-0.898,18.57-2.703c5.736-1.801,10.885-4.481,15.438-8.039c4.555-3.558,8.396-7.897,11.527-13.021
			c3.131-5.122,5.406-11.003,6.83-17.645h38.135c-1.615,11.29-5.004,21.536-10.174,30.736c-5.172,9.201-11.74,17.125-19.709,23.763
			c-7.967,6.642-17.1,11.765-27.393,15.369C1270.127,1524.43,1258.91,1526.234,1246.768,1526.234z"/>
		<path fill="#FFFFFF" d="M1428.178,1525.521c-10.055,0-18.996-1.708-26.822-5.123c-7.826-3.414-14.018-8.514-18.568-15.295
			c-4.555-6.782-6.832-15.203-6.832-25.26c0-8.63,1.611-15.769,4.84-21.414c3.223-5.643,7.611-10.149,13.162-13.519
			c5.549-3.367,11.902-5.928,19.066-7.684c7.162-1.755,14.586-3.01,22.27-3.771c9.295-1.043,16.695-1.969,22.199-2.775
			c5.502-0.806,9.482-2.015,11.953-3.628c2.465-1.612,3.699-4.127,3.699-7.542v-0.997c0-4.553-1.094-8.512-3.273-11.881
			c-2.184-3.367-5.314-5.998-9.391-7.896c-4.08-1.896-9.061-2.848-14.943-2.848s-11.027,0.951-15.438,2.848
			c-4.412,1.898-7.947,4.459-10.602,7.683c-2.658,3.227-4.268,6.879-4.838,10.957l-34.436-1.564
			c1.137-9.866,4.529-18.357,10.174-25.473c5.643-7.113,13.209-12.639,22.697-16.577c9.484-3.935,20.49-5.904,33.012-5.904
			c9.297,0,17.787,1.115,25.471,3.345s14.324,5.526,19.922,9.888c5.596,4.365,9.91,9.772,12.949,16.222
			c3.033,6.454,4.553,13.9,4.553,22.342v103.307h-35.289v-21.345h-0.855c-2.273,4.459-5.359,8.517-9.248,12.168
			c-3.891,3.65-8.729,6.522-14.514,8.606C1443.309,1524.477,1436.336,1525.521,1428.178,1525.521z M1437.143,1498.771
			c7.777,0,14.348-1.445,19.709-4.34c5.357-2.893,9.438-6.734,12.236-11.526c2.799-4.788,4.197-10.078,4.197-15.865v-16.934
			c-1.139,0.854-2.869,1.614-5.193,2.275c-2.324,0.665-5.051,1.306-8.182,1.922c-3.131,0.618-6.428,1.209-9.891,1.778
			c-3.463,0.57-6.9,1.093-10.314,1.565c-5.221,0.76-9.986,1.971-14.301,3.63c-4.318,1.66-7.779,3.96-10.389,6.9
			c-2.609,2.941-3.912,6.736-3.912,11.385c0,3.982,1.09,7.423,3.271,10.315c2.182,2.895,5.217,5.1,9.107,6.616
			C1427.371,1498.012,1431.924,1498.771,1437.143,1498.771z"/>
		<path fill="#FFFFFF" d="M1596.07,1310.94v212.021h-36.285V1310.94H1596.07z"/>
		<path fill="#FFFFFF" d="M1665.066,1348.364c-6.072,0-11.17-1.969-15.297-5.906c-4.127-3.935-6.189-8.751-6.189-14.442
			c0-5.785,2.063-10.623,6.189-14.514c4.127-3.89,9.178-5.836,15.154-5.836c6.166,0,11.313,1.946,15.439,5.836
			c4.127,3.891,6.191,8.729,6.191,14.514c0,5.691-2.064,10.508-6.191,14.442C1676.236,1346.396,1671.137,1348.364,1665.066,1348.364
			z M1646.852,1522.961v-152.257h36.287v152.257H1646.852z"/>
		<path fill="#FFFFFF" d="M1720.83,1522.961l61.471-88.367l-0.428,20.776l-57.629-84.666h40.27l15.652,24.618
			c4.078,6.641,7.92,13.114,11.527,19.423c3.604,6.31,7.256,12.593,10.957,18.854h-13.52c3.793-6.262,7.494-12.545,11.1-18.854
			c3.604-6.309,7.492-12.782,11.668-19.423l16.08-24.618h39.559l-58.484,84.808l0.428-20.775l60.475,88.225h-40.127l-18.355-27.891
			c-4.082-6.546-7.898-12.853-11.455-18.925c-3.557-6.07-7.141-12.142-10.744-18.214h12.521
			c-3.699,6.072-7.328,12.144-10.885,18.214c-3.557,6.072-7.424,12.379-11.598,18.925l-18.498,27.891H1720.83z"/>
		<path fill="#FFFFFF" d="M1894.838,1522.961l77.98-212.021h29.598l77.551,212.021h-27.605l-44.68-127.354
			c-2.848-8.254-6.096-17.905-9.748-28.958c-3.652-11.051-8.277-25.446-13.873-43.187h6.971c-5.504,17.836-10.08,32.28-13.73,43.329
			c-3.654,11.053-6.951,20.657-9.891,28.815l-45.393,127.354H1894.838z M1934.824,1463.481v-22.909h105.016v22.909H1934.824z"/>
		<path fill="#FFFFFF" d="M2175.146,1525.665c-10.152,0-19.402-2.207-27.748-6.617c-8.35-4.411-14.967-11.074-19.85-19.993
			c-4.887-8.915-7.33-20.015-7.33-33.296v-95.055h24.477v93.347c0,12.805,3.152,22.531,9.463,29.17
			c6.307,6.641,15.057,9.961,26.254,9.961c7.398,0,14.084-1.495,20.063-4.482c5.977-2.988,10.744-7.684,14.301-14.087
			c3.559-6.404,5.336-14.49,5.336-24.262v-89.646h24.477v152.257h-23.908v-36.855h6.119c-4.934,13.756-11.811,23.789-20.633,30.096
			C2197.344,1522.511,2187.004,1525.665,2175.146,1525.665z"/>
		<path fill="#FFFFFF" d="M2364.811,1370.704v21.061h-81.537v-21.061H2364.811z M2309.457,1330.435h24.473v154.959
			c0,6.169,1.258,10.508,3.773,13.021c2.512,2.515,6.9,3.771,13.162,3.771c2.086,0,4.385-0.048,6.9-0.143
			c2.512-0.094,4.814-0.188,6.9-0.284l1.139,21.059c-2.467,0.189-5.219,0.331-8.252,0.427c-3.037,0.095-5.883,0.143-8.539,0.143
			c-13.092,0-22.959-2.988-29.596-8.963c-6.643-5.978-9.961-14.8-9.961-26.467V1330.435z"/>
		<path fill="#FFFFFF" d="M2433.52,1433.314v89.646h-24.473V1310.94h24.473v96.76h-6.686c4.932-13.849,11.809-23.904,20.631-30.165
			c8.822-6.262,19.162-9.393,31.021-9.393c10.246,0,19.518,2.207,27.818,6.618c8.299,4.409,14.893,11.027,19.781,19.848
			c4.883,8.823,7.326,19.923,7.326,33.299v95.054h-24.473v-93.203c0-12.901-3.131-22.672-9.393-29.314
			c-6.262-6.639-15.037-9.96-26.326-9.96c-7.307,0-13.969,1.519-19.992,4.554c-6.025,3.037-10.816,7.708-14.371,14.017
			C2435.301,1415.363,2433.52,1423.449,2433.52,1433.314z"/>
	</g>
</g>
</svg>
