<?xml version="1.0" encoding="utf-8"?>
<!-- Generator: Adobe Illustrator 15.0.0, SVG Export Plug-In . SVG Version: 6.00 Build 0)  -->
<!DOCTYPE svg PUBLIC "-//W3C//DTD SVG 1.1//EN" "http://www.w3.org/Graphics/SVG/1.1/DTD/svg11.dtd">
<svg version="1.1" id="Capa_1" xmlns="http://www.w3.org/2000/svg" xmlns:xlink="http://www.w3.org/1999/xlink" x="0px" y="0px"
	 width="550px" height="550px" viewBox="0 0 550 550" enable-background="new 0 0 550 550" xml:space="preserve">
<g>
	<path fill="#FFFFFF" d="M113.35,64.3c5.76-0.08,11.53-0.11,17.3-0.04c-0.04,28.58-0.01,57.16,0.07,85.73
		c-0.12,14.5,1.77,28.97,5.2,43.04c6.15,27.62,18.29,53.979,35.85,76.21c16.96,21.32,39.9,37.49,64.98,47.869
		c0.08,5.609,0.08,11.221-0.14,16.83c-12.94-4.289-25-10.859-36.55-18.012c-28.32-17.63-50.74-44.06-64.76-74.229
		c-14.62-31.71-22.67-66.71-21.84-101.69C113.36,114.77,113.53,89.54,113.35,64.3z"/>
</g>
<path fill="#FFFFFF" d="M317.65,120.37c-4.44-12.35-14.381-22.41-26.291-27.74c-10.102-4.49-21.649-4.84-32.339-2.44
	c-10.99,2.53-20.64,9.5-27.59,18.24c-3.26,5.3-6.23,10.93-8.04,16.9c-1.91,10.75-0.91,22.2,3.59,32.21l0.57,0.15
	c2.18,6.65,7.04,12.02,12.22,16.54c8.61,7.4,19.91,11.29,31.2,11.41c11.7,0.37,23.42-4.03,32.32-11.54
	c5.489-4.57,9.83-10.41,13.03-16.77C321.689,145.86,322.13,132.2,317.65,120.37z"/>
<path fill="#FFFFFF" d="M236.7,360.109c-6.29-2.719-12.83-4.869-19.03-7.812c-26.1-12.108-49.82-29.35-69.38-50.47
	c-22.39-25.25-39-55.66-47.98-88.2c-4.53-18.53-7.98-37.49-7.73-56.64c-0.07-30.9-0.13-61.811,0.15-92.72
	c-5.57-0.06-11.14-0.02-16.72,0.01c-0.37,31.229-0.11,62.479-0.15,93.71c0.04,29.689,6.34,59.2,17.56,86.64
	c8.44,20.12,19,39.58,32.91,56.472c2.02,3.67,5.19,6.528,7.83,9.729c13.88,15.97,30.38,29.46,48.14,40.88
	c16.92,10.45,34.84,19.562,53.98,25.188C236.91,371.32,236.84,365.71,236.7,360.109z"/>
<g>
	<path fill="#FFFFFF" d="M432.85,64.3c-5.76-0.08-11.528-0.11-17.301-0.04c0.041,28.58,0.01,57.16-0.07,85.73
		c0.121,14.5-1.77,28.97-5.197,43.04c-6.15,27.62-18.29,53.979-35.852,76.21c-16.961,21.32-39.898,37.49-64.979,47.869
		c-0.08,5.609-0.08,11.221,0.141,16.83c12.939-4.289,25-10.859,36.549-18.012c28.32-17.63,50.74-44.06,64.763-74.229
		c14.62-31.71,22.67-66.71,21.84-101.69C432.84,114.77,432.67,89.54,432.85,64.3z"/>
</g>
<path fill="#FFFFFF" d="M309.499,360.109c6.29-2.719,12.83-4.869,19.03-7.812c26.1-12.108,49.818-29.35,69.38-50.47
	c22.39-25.25,39-55.66,47.979-88.2c4.531-18.53,7.98-37.49,7.73-56.64c0.07-30.9,0.13-61.811-0.15-92.72
	c5.57-0.06,11.143-0.02,16.723,0.01c0.367,31.229,0.107,62.479,0.148,93.71c-0.041,29.689-6.341,59.2-17.561,86.64
	c-8.439,20.12-19,39.58-32.91,56.472c-2.021,3.67-5.189,6.528-7.83,9.729c-13.88,15.97-30.38,29.46-48.14,40.88
	c-16.923,10.45-34.843,19.562-53.979,25.188C309.289,371.32,309.359,365.71,309.499,360.109z"/>
<g>
	
		<linearGradient id="SVGID_1_" gradientUnits="userSpaceOnUse" x1="523.7471" y1="281" x2="523.747" y2="764.3425" gradientTransform="matrix(1 0 0 1 -252 -241)">
		<stop  offset="0" style="stop-color:#516F82"/>
		<stop  offset="1" style="stop-color:#284664"/>
	</linearGradient>
	<path fill="url(#SVGID_1_)" d="M344.91,513.88c-2.352-0.239-6.43,0.312-6.49-3.08c-0.891-7.64,0.33-15.34,0-23
		c-0.63-19.438,0.641-38.89-0.29-58.31c0.812-8.021-0.79-16.12,0.33-24.08c3.64-4.07,9.33-5.33,13.97-7.96
		c16.78-9.05,32.87-19.4,47.92-31.11c21.592-17.25,39.94-38.25,55.75-60.85c24.28-35.91,40.813-77.41,45.92-120.56
		c3.33-19.44,2.78-39.28,2.961-58.93c-0.158-31.53,0.381-63.06-0.351-94.58l-0.83-0.19c-2.239-0.47-4.53-0.61-6.8-0.65
		c-32.33,0.15-64.67,0.01-97,0.06c-10.24,0.15-20.48-0.34-30.7,0.36c-3.771-0.08-7.53-0.35-11.3-0.36c-99.66,0.03-199.33,0-299,0
		c-6.68-0.03-13.36-0.08-20.04,0.22c-0.71,8.03-0.16,16.1-0.29,24.14c-0.13,26.76,0.25,53.52-0.2,80.28
		c0.29,6.7,0.271,13.41,0.521,20.12c0.16,17.35,2.7,34.6,6.04,51.59c2.359,10.92,5.75,21.57,8.979,32.26
		c5.1,14.72,11.44,29.01,19.03,42.63c7.34,14.511,16.84,27.761,26.81,40.55c12.71,16.4,27.38,31.35,43.84,43.99
		c8.35,7.53,17.78,13.65,27.32,19.54c10.98,7.44,23.19,12.729,34.75,19.149c-0.03,27.971-0.06,55.931,0.04,83.891
		c0.07,7.98-0.27,15.98,0.2,23.96c-3.03,0.28-6.06,0.46-9.09,0.58c-13.62,0.59-27.26,0.319-40.88,0.88
		c-15.69,0.7-31.4,0.109-47.09,0.83c-0.43,5.21-0.41,10.45,0.06,15.66c22.32-1.12,44.67-0.313,67.01-0.57
		c12,0.04,24.01-0.07,36.01,0.131c2.65-0.201,5.7,0.209,7.98-1.391c1.32-3.53,0.97-7.4,1.06-11.09
		c-0.27-29.461,0.55-58.94-0.15-88.4c0.19-12.17,0.21-24.34,0.26-36.51c-10.59-4.859-21.15-9.77-31.48-15.17
		c-3.26-1.961-6.41-4.09-9.7-6c-18.41-10.92-34.6-25.141-49.65-40.26c-7.85-8.07-14.95-16.82-22.01-25.58
		c-17.78-23.43-31.58-49.892-40.4-77.97c-2.73-8.08-4.51-16.44-7.02-24.58c-2.65-17.73-5.97-35.51-5.6-53.52
		c-0.09-23.14,0.28-46.29-0.2-69.43c0.6-11.01-0.21-22.05,0.38-33.06c12.06-0.34,24.12,0.09,36.18-0.24
		c49.44,0.29,98.88,0.04,148.33,0.09c28.91-0.05,57.82,0.13,86.74-0.06c53.66,0.11,107.33,0.13,161,0.01
		c0.33,32.23-0.021,64.46,0.1,96.69c0.23,10.39-0.38,20.77-1.49,31.1c-1.39,16.82-4.857,33.41-9.68,49.57
		c-3.84,12.92-9.42,25.22-14.561,37.67c-5.75,9.56-10.58,19.68-16.891,28.92c-7.261,10.32-14.641,20.57-22.841,30.17
		c-23.18,26.791-52.101,48.36-83.79,64.051c-5.5,2.629-11.26,4.682-16.67,7.5l0.391,138.16c39.051-0.688,78.129,0.182,117.189-0.621
		c0.13-4.729,1.46-9.908-0.68-14.34c-3.41-1.42-7.223-0.99-10.82-1.107L344.91,513.88z"/>
	
		<linearGradient id="SVGID_2_" gradientUnits="userSpaceOnUse" x1="460.1641" y1="281" x2="460.164" y2="764.3425" gradientTransform="matrix(1 0 0 1 -252 -241)">
		<stop  offset="0" style="stop-color:#516F82"/>
		<stop  offset="1" style="stop-color:#284664"/>
	</linearGradient>
	<path fill="url(#SVGID_2_)" d="M244.06,530.83c5.29,0.15,10.58,0.141,15.87-0.03l0.09-253.829c-1.12-0.291-2.24-0.561-3.36-0.83
		c-34.02-7.351-62.67-32.621-76.76-64.101c-3.056-5.876-4.614-12.312-6.735-18.54h-16.859c0.699,3.511,1.556,6.998,2.724,10.38
		c4.64,13.91,10.95,27.45,20.11,38.99c8.87,11.66,19.03,22.56,31.29,30.71c1.37,0.83,2.86,1.45,4.38,1.97
		c1.47,1.421,2.96,2.87,4.78,3.87c7.73,4.2,15.98,7.301,24.05,10.78L244.06,530.83z"/>
	
		<linearGradient id="SVGID_3_" gradientUnits="userSpaceOnUse" x1="590.0391" y1="281" x2="590.0391" y2="764.3425" gradientTransform="matrix(1 0 0 1 -252 -241)">
		<stop  offset="0" style="stop-color:#516F82"/>
		<stop  offset="1" style="stop-color:#284664"/>
	</linearGradient>
	<path fill="url(#SVGID_3_)" d="M302.559,290.2c8.07-3.479,16.32-6.58,24.053-10.78c1.818-1,3.311-2.449,4.777-3.87
		c1.521-0.52,3.013-1.14,4.381-1.97c12.262-8.15,22.422-19.05,31.289-30.71c9.16-11.54,15.473-25.08,20.111-38.99
		c1.168-3.382,2.025-6.869,2.724-10.38h-16.856c-2.122,6.229-3.68,12.664-6.736,18.54c-14.09,31.48-42.74,56.75-76.76,64.101
		c-1.119,0.271-2.24,0.539-3.357,0.83l0.09,253.829c5.289,0.171,10.58,0.183,15.869,0.03L302.559,290.2z"/>
</g>
<path fill="#FFFFFF" d="M168.13,142.999c-0.28-26.24,0.31-52.48-0.42-78.72c-5.47-0.03-10.95-0.03-16.42,0.01
	c0.19,22.24,0,44.48,0,66.71c0.04,11.32-0.31,22.65,0.45,33.95c0.59,9.21,2.51,18.25,4.31,27.28
	c0.395,2.102,0.851,4.197,1.382,6.271h17.35c-0.738-2.361-1.479-4.722-2.332-7.041C168.2,175.669,167.91,159.239,168.13,142.999z"/>
<path fill="#FFFFFF" d="M394.459,164.949c0.76-11.3,0.41-22.63,0.45-33.95c0-22.23-0.19-44.47,0-66.71
	c-5.47-0.04-10.95-0.04-16.42-0.01c-0.73,26.24-0.142,52.479-0.42,78.72c0.22,16.24-0.07,32.67-4.32,48.46
	c-0.854,2.319-1.594,4.68-2.332,7.041h17.35c0.532-2.074,0.988-4.169,1.384-6.271C391.949,183.199,393.869,174.159,394.459,164.949z
	"/>
</svg>
